<svg width="400" height="300" viewBox="0 0 400 300" xmlns="http://www.w3.org/2000/svg">
  <defs>
    <linearGradient id="neuralGradient" x1="0%" y1="0%" x2="100%" y2="100%">
      <stop offset="0%" style="stop-color:#3b82f6;stop-opacity:1" />
      <stop offset="100%" style="stop-color:#1e40af;stop-opacity:1" />
    </linearGradient>
  </defs>
  
  <!-- Background -->
  <rect width="400" height="300" fill="#f8fafc"/>
  
  <!-- Title -->
  <text x="200" y="30" text-anchor="middle" font-family="Arial, sans-serif" font-size="18" font-weight="bold" fill="#1e40af">
    Keras Swin UNet Architecture
  </text>
  
  <!-- U-Net Structure -->
  <!-- Encoder -->
  <rect x="50" y="60" width="60" height="40" fill="url(#neuralGradient)" rx="5"/>
  <text x="80" y="85" text-anchor="middle" font-family="Arial, sans-serif" font-size="12" fill="white">Encoder</text>
  
  <rect x="30" y="120" width="60" height="40" fill="url(#neuralGradient)" rx="5"/>
  <text x="60" y="145" text-anchor="middle" font-family="Arial, sans-serif" font-size="12" fill="white">Conv</text>
  
  <rect x="10" y="180" width="60" height="40" fill="url(#neuralGradient)" rx="5"/>
  <text x="40" y="205" text-anchor="middle" font-family="Arial, sans-serif" font-size="12" fill="white">Swin</text>
  
  <!-- Bottleneck -->
  <rect x="170" y="210" width="60" height="40" fill="#ef4444" rx="5"/>
  <text x="200" y="235" text-anchor="middle" font-family="Arial, sans-serif" font-size="12" fill="white">Bridge</text>
  
  <!-- Decoder -->
  <rect x="330" y="180" width="60" height="40" fill="url(#neuralGradient)" rx="5"/>
  <text x="360" y="205" text-anchor="middle" font-family="Arial, sans-serif" font-size="12" fill="white">Swin</text>
  
  <rect x="310" y="120" width="60" height="40" fill="url(#neuralGradient)" rx="5"/>
  <text x="340" y="145" text-anchor="middle" font-family="Arial, sans-serif" font-size="12" fill="white">Conv</text>
  
  <rect x="290" y="60" width="60" height="40" fill="url(#neuralGradient)" rx="5"/>
  <text x="320" y="85" text-anchor="middle" font-family="Arial, sans-serif" font-size="12" fill="white">Decoder</text>
  
  <!-- Arrows -->
  <path d="M 110 80 L 130 80" stroke="#374151" stroke-width="2" marker-end="url(#arrowhead)"/>
  <path d="M 90 100 L 90 120" stroke="#374151" stroke-width="2" marker-end="url(#arrowhead)"/>
  <path d="M 70 160 L 70 180" stroke="#374151" stroke-width="2" marker-end="url(#arrowhead)"/>
  <path d="M 70 200 L 170 230" stroke="#374151" stroke-width="2" marker-end="url(#arrowhead)"/>
  
  <path d="M 230 230 L 330 200" stroke="#374151" stroke-width="2" marker-end="url(#arrowhead)"/>
  <path d="M 350 180 L 350 160" stroke="#374151" stroke-width="2" marker-end="url(#arrowhead)"/>
  <path d="M 340 120 L 340 100" stroke="#374151" stroke-width="2" marker-end="url(#arrowhead)"/>
  <path d="M 290 80 L 270 80" stroke="#374151" stroke-width="2" marker-end="url(#arrowhead)"/>
  
  <!-- Skip connections -->
  <path d="M 110 80 L 290 80" stroke="#10b981" stroke-width="2" stroke-dasharray="5,5"/>
  <path d="M 90 140 L 310 140" stroke="#10b981" stroke-width="2" stroke-dasharray="5,5"/>
  <path d="M 70 200 L 330 200" stroke="#10b981" stroke-width="2" stroke-dasharray="5,5"/>
  
  <!-- Legend -->
  <text x="200" y="270" text-anchor="middle" font-family="Arial, sans-serif" font-size="14" fill="#374151">
    Medical Image Segmentation with Swin Transformers
  </text>
  
  <defs>
    <marker id="arrowhead" markerWidth="10" markerHeight="7" refX="9" refY="3.5" orient="auto">
      <polygon points="0 0, 10 3.5, 0 7" fill="#374151"/>
    </marker>
  </defs>
</svg>